<?xml version="1.0" encoding="utf-8"?>
<!-- Generator: Adobe Illustrator 14.0.0, SVG Export Plug-In . SVG Version: 6.00 Build 43363)  -->
<!DOCTYPE svg PUBLIC "-//W3C//DTD SVG 1.1//EN" "http://www.w3.org/Graphics/SVG/1.1/DTD/svg11.dtd">
<svg version="1.1" id="Layer_1" xmlns="http://www.w3.org/2000/svg" xmlns:xlink="http://www.w3.org/1999/xlink" x="0px" y="0px"
	 width="56px" height="56px" viewBox="0 0 56 56" enable-background="new 0 0 56 56" xml:space="preserve">
<path fill="#FFFFFF" d="M38.923,11.49c4.931,0.008,8.916,3.994,8.925,8.925c0,0.488,0.397,0.886,0.885,0.886
	c0.489,0,0.886-0.398,0.886-0.886c0-5.907-4.789-10.695-10.695-10.695c-0.488,0-0.885,0.397-0.885,0.885
	C38.038,11.093,38.435,11.49,38.923,11.49z"/>
<path fill="#FFFFFF" d="M39.116,2.844c-4.296,0-8.168,1.669-11.128,4.337C25.041,4.52,21.154,2.842,16.86,2.844
	C7.646,2.847,0.185,10.312,0.185,19.52l0.101,0.86c0,0,0.217,6.301,4.79,10.874l21.392,21.391c0.399,0.402,0.955,0.633,1.521,0.633
	c0.566,0,1.121-0.23,1.522-0.633L50.975,31.18c4.884-4.883,4.742-10.828,4.742-10.828l0.075-0.832
	C55.792,10.312,48.331,2.847,39.116,2.844z M49.494,27.477c-0.601,0.604-1.954,1.945-2.028,2.029L29.441,47.529
	c0,0-0.698,0.734-1.453,0.734c-0.756,0-1.371-0.65-1.371-0.65l-8.643-8.643l-9.446-9.545c-3.048-3.047-5.1-6.092-5.1-10.289
	c0.014-7.139,5.789-12.916,12.93-12.929c3.369,0,7.119,1.612,9.424,3.711c-1.792,2.738-2.739,5.052-2.739,8.572
	c0,1.244,0.421,3.022,1.966,3.022c1.243,0,1.678-1.133,1.678-2.376c0.013-7.139,5.789-12.916,12.93-12.929
	c7.14,0.014,12.915,5.79,12.93,12.929C52.548,22.325,51.756,25.216,49.494,27.477z"/>
</svg>
