<?xml version="1.0" encoding="UTF-8" standalone="no"?>

<svg xmlns:dc="http://purl.org/dc/elements/1.1/" xmlns:cc="http://creativecommons.org/ns#" xmlns:rdf="http://www.w3.org/1999/02/22-rdf-syntax-ns#" xmlns:svg="http://www.w3.org/2000/svg" xmlns="http://www.w3.org/2000/svg" version="1.1" id="Layer_1" x="0px" y="0px" width="26" height="26" viewBox="0 0 26 26" enable-background="new 0 0 52 26" xml:space="preserve">
<metadata id="metadata3116"><rdf:RDF><cc:Work rdf:about=""><dc:format>image/svg+xml</dc:format><dc:type rdf:resource="http://purl.org/dc/dcmitype/StillImage" /><dc:title></dc:title></cc:Work></rdf:RDF></metadata>
<defs id="defs3114" />
<g id="g3106" transform="translate(-26.061936,0.0673435)"> <path d="M 47.486,8.661 H 43.617 V 5.285 c 0,-1.243 -1.007,-2.25 -2.251,-2.25 h -2.011 c -0.825,0 -1.586,0.451 -1.979,1.176 L 34.868,8.825 C 34.609,8.721 34.327,8.662 34.032,8.662 h -3.517 c -1.246,0 -2.252,1.009 -2.252,2.251 v 9.572 c 0,1.245 1.006,2.253 2.252,2.253 h 3.517 c 0.999,0 1.846,-0.652 2.139,-1.554 l 3.521,1.396 c 0.266,0.103 0.544,0.158 0.83,0.158 h 6.963 c 1.243,0 2.25,-1.008 2.25,-2.253 V 10.911 C 49.736,9.668 48.729,8.661 47.486,8.661 z M 30.517,20.485 v -9.572 h 3.497 c -0.002,0.022 -0.004,0.046 -0.004,0.068 v 7.816 c 0,0.106 0.011,0.209 0.023,0.311 v 1.377 h -3.516 z m 16.969,0 h -6.963 l -4.238,-1.677 v -7.871 l 3.07,-5.653 h 2.011 v 5.626 h 6.12 v 9.575 z" id="path3108" style="fill:#ffffff" />
	<circle cx="32.316002" cy="18.577999" r="1.126" id="circle3110" style="fill:#ffffff" d="m 33.442002,18.577999 c 0,0.621873 -0.504127,1.126 -1.126,1.126 -0.621873,0 -1.126,-0.504127 -1.126,-1.126 0,-0.621873 0.504127,-1.126 1.126,-1.126 0.621873,0 1.126,0.504127 1.126,1.126 z" />
</g>
</svg>
