<?xml version="1.0" encoding="utf-8"?>
<!-- Generator: Adobe Illustrator 14.0.0, SVG Export Plug-In . SVG Version: 6.00 Build 43363)  -->
<!DOCTYPE svg PUBLIC "-//W3C//DTD SVG 1.1//EN" "http://www.w3.org/Graphics/SVG/1.1/DTD/svg11.dtd">
<svg version="1.1" id="Layer_1" xmlns="http://www.w3.org/2000/svg" xmlns:xlink="http://www.w3.org/1999/xlink" x="0px" y="0px"
	 width="52px" height="26px" viewBox="0 0 52 26" enable-background="new 0 0 52 26" xml:space="preserve">
<path fill="#FFFFFF" d="M0.575,14.675c0.631,3.008,2.157,5.511,4.411,7.239c2.034,1.56,4.611,2.418,7.259,2.418
	c3.456,0,6.73-1.432,8.983-3.927c1.728-1.914,3.671-5.345,3.111-10.817c-0.034-0.341-0.085-0.677-0.153-1.005
	c0.393-0.524,0.686-0.855,0.688-0.858c0.595-0.665,0.762-1.609,0.433-2.437c-0.331-0.829-1.103-1.397-1.991-1.47
	c-0.377-0.031-0.757-0.046-1.129-0.046c-0.245,0-0.489,0.007-0.732,0.02c-1.43-1.233-3.257-1.92-5.174-1.92
	c-2.143,0-4.09,0.879-5.344,2.411c-1.256,1.536-1.716,3.617-1.302,5.875C8.455,9.875,7.35,9.428,6.887,9.211
	C6.566,9.059,6.223,8.983,5.881,8.983c-0.518,0-1.031,0.172-1.453,0.504c-0.701,0.552-1.028,1.453-0.845,2.326
	c0.011,0.051,0.021,0.102,0.033,0.152c-0.242-0.081-0.494-0.121-0.743-0.121c-0.518,0-1.032,0.171-1.454,0.503
	C0.719,12.9,0.392,13.802,0.575,14.675z M2.873,14.192c0,0,2.526,1.2,4.948,1.402c-0.897-1.143-1.583-2.557-1.94-4.263
	c0,0,3.012,1.429,5.612,1.429c0.22,0,0.437-0.01,0.649-0.032c0.104-0.761,0.062-1.703-0.173-2.865
	C11.222,6.167,13.631,4.22,16.28,4.22c1.544,0,3.168,0.66,4.299,2.02c0.514-0.079,1.052-0.119,1.608-0.119
	c0.308,0,0.621,0.012,0.94,0.038c0,0-0.729,0.813-1.491,1.974c0.178,0.514,0.306,1.079,0.368,1.696
	c0.822,8.024-4.488,12.157-9.759,12.157C8.096,21.984,3.971,19.427,2.873,14.192z"/>
<g>
	<path fill="#FFFFFF" d="M47.486,8.661h-3.869V5.285c0-1.243-1.007-2.25-2.251-2.25h-2.011c-0.825,0-1.586,0.451-1.979,1.176
		l-2.508,4.614c-0.259-0.104-0.541-0.163-0.836-0.163h-3.517c-1.246,0-2.252,1.009-2.252,2.251v9.572
		c0,1.245,1.006,2.253,2.252,2.253h3.517c0.999,0,1.846-0.652,2.139-1.554l3.521,1.396c0.266,0.103,0.544,0.158,0.83,0.158h6.963
		c1.243,0,2.25-1.008,2.25-2.253v-9.574C49.736,9.668,48.729,8.661,47.486,8.661z M30.517,20.485v-9.572h3.497
		c-0.002,0.022-0.004,0.046-0.004,0.068v7.816c0,0.106,0.011,0.209,0.023,0.311v1.377H30.517z M47.486,20.485h-6.963l-4.238-1.677
		v-7.871l3.07-5.653h2.011v5.626h6.12V20.485z"/>
	<circle fill="#FFFFFF" cx="32.316" cy="18.578" r="1.126"/>
</g>
</svg>
