<?xml version="1.0" encoding="UTF-8" standalone="no"?>

<svg xmlns:dc="http://purl.org/dc/elements/1.1/" xmlns:cc="http://creativecommons.org/ns#" xmlns:rdf="http://www.w3.org/1999/02/22-rdf-syntax-ns#" xmlns:svg="http://www.w3.org/2000/svg" xmlns="http://www.w3.org/2000/svg" version="1.1" id="Layer_1" x="0px" y="0px" width="26" height="26" viewBox="0 0 26 26" enable-background="new 0 0 52 26" xml:space="preserve" >
<metadata id="metadata3116"><rdf:RDF><cc:Work rdf:about=""><dc:format>image/svg+xml</dc:format><dc:type rdf:resource="http://purl.org/dc/dcmitype/StillImage" /><dc:title></dc:title></cc:Work></rdf:RDF></metadata>
<defs id="defs3114" />
<path d="m 0.575,14.675 c 0.631,3.008 2.157,5.511 4.411,7.239 2.034,1.56 4.611,2.418 7.259,2.418 3.456,0 6.73,-1.432 8.983,-3.927 C 22.956,18.491 24.899,15.06 24.339,9.588 24.305,9.247 24.254,8.911 24.186,8.583 24.579,8.059 24.872,7.728 24.874,7.725 25.469,7.06 25.636,6.116 25.307,5.288 24.976,4.459 24.204,3.891 23.316,3.818 22.939,3.787 22.559,3.772 22.187,3.772 c -0.245,0 -0.489,0.007 -0.732,0.02 -1.43,-1.233 -3.257,-1.92 -5.174,-1.92 -2.143,0 -4.09,0.879 -5.344,2.411 C 9.681,5.819 9.221,7.9 9.635,10.158 8.455,9.875 7.35,9.428 6.887,9.211 6.566,9.059 6.223,8.983 5.881,8.983 5.363,8.983 4.85,9.155 4.428,9.487 3.727,10.039 3.4,10.94 3.583,11.813 c 0.011,0.051 0.021,0.102 0.033,0.152 -0.242,-0.081 -0.494,-0.121 -0.743,-0.121 -0.518,0 -1.032,0.171 -1.454,0.503 -0.7,0.553 -1.027,1.455 -0.844,2.328 z m 2.298,-0.483 c 0,0 2.526,1.2 4.948,1.402 -0.897,-1.143 -1.583,-2.557 -1.94,-4.263 0,0 3.012,1.429 5.612,1.429 0.22,0 0.437,-0.01 0.649,-0.032 0.104,-0.761 0.062,-1.703 -0.173,-2.865 -0.747,-3.696 1.662,-5.643 4.311,-5.643 1.544,0 3.168,0.66 4.299,2.02 0.514,-0.079 1.052,-0.119 1.608,-0.119 0.308,0 0.621,0.012 0.94,0.038 0,0 -0.729,0.813 -1.491,1.974 0.178,0.514 0.306,1.079 0.368,1.696 0.822,8.024 -4.488,12.157 -9.759,12.157 C 8.096,21.984 3.971,19.427 2.873,14.192 z" id="path3104" style="fill:#ffffff" />
</svg>
